<svg xmlns="http://www.w3.org/2000/svg" width="2828" height="1216" viewBox="0 0 2828 1216" version="1.1"><path d="M 420 337.105 C 407.110 337.608, 402.564 338.228, 393 340.789 C 377.336 344.983, 369.193 348.169, 358 354.487 C 331.737 369.309, 317.980 382.792, 303.400 408 C 296.433 420.045, 294.428 424.845, 289.406 441.500 C 284.581 457.504, 284.214 464.387, 285.138 521.590 C 285.555 547.391, 285.896 596.002, 285.895 629.616 C 285.894 694.843, 285.880 694.612, 291.029 710.214 C 294.705 721.349, 298.155 730, 298.921 730 C 299.331 730, 299.670 730.563, 299.674 731.250 C 299.688 733.632, 306.184 744.004, 307.250 743.346 C 307.866 742.965, 308.015 743.166, 307.606 743.828 C 306.733 745.241, 311.369 752.269, 312.499 751.245 C 312.951 750.835, 313.014 751.034, 312.640 751.688 C 311.807 753.140, 320.255 763.612, 321.947 763.225 C 322.608 763.074, 322.895 763.361, 322.585 763.862 C 322.005 764.801, 324.840 767.696, 325.904 767.250 C 326.232 767.112, 326.520 767.563, 326.545 768.250 C 326.570 768.938, 327.166 769.376, 327.870 769.225 C 328.573 769.074, 328.901 769.351, 328.599 769.840 C 327.996 770.815, 333.672 775.758, 344.530 783.712 C 352.849 789.807, 377.188 801.719, 385 803.518 C 388.025 804.215, 393.650 805.132, 397.500 805.556 C 407.432 806.650, 642.606 806.275, 644.753 805.162 C 645.714 804.663, 648.750 803.943, 651.500 803.561 C 660.864 802.259, 681.350 792.868, 694.891 783.669 C 699.076 780.826, 707.054 774.100, 712.620 768.722 C 728.325 753.547, 739.031 736.420, 748.696 711.007 C 751.055 704.804, 751.525 701.681, 754.035 675.500 C 754.723 668.331, 754.968 630.021, 754.739 565.500 C 754.317 446.325, 754.608 449.826, 742.798 422 C 740.580 416.775, 737.598 410.475, 736.170 408 C 724.343 387.501, 704.296 367.211, 686 357.220 C 682.975 355.569, 678.473 353.067, 675.996 351.661 C 670.038 348.279, 653.390 342.536, 640.705 339.487 L 630.500 337.034 533 336.767 C 479.375 336.620, 428.525 336.772, 420 337.105 M 1995.248 349.046 C 1989.774 351.833, 1982.454 359.997, 1979.149 367 L 1976.554 372.500 1976.919 465.500 C 1977.120 516.650, 1977.393 605.975, 1977.526 664 C 1977.659 722.025, 1977.820 770.089, 1977.884 770.809 C 1977.948 771.533, 1978.516 771.799, 1979.155 771.405 C 1979.880 770.956, 1980.037 771.131, 1979.577 771.875 C 1978.600 773.456, 1982.770 780.407, 1988.146 786.158 C 1991.553 789.803, 1993.804 791.198, 1998.500 792.573 C 2006.405 794.887, 2014.869 794.732, 2023.646 792.111 C 2030.026 790.206, 2031.426 789.299, 2036.707 783.654 C 2047.535 772.079, 2046.500 794.650, 2046.500 570 C 2046.500 346.031, 2047.439 367.506, 2037.179 356.748 C 2028.990 348.162, 2027.711 347.670, 2012.500 347.245 C 2000.729 346.916, 1999.098 347.086, 1995.248 349.046 M 2159.303 348.898 C 2153.984 351.378, 2146.739 358.896, 2143.950 364.829 C 2142.525 367.861, 2141.464 372.967, 2140.806 379.953 C 2140.170 386.714, 2139.990 457.981, 2140.303 578.500 C 2140.780 761.991, 2140.839 766.637, 2142.753 772.225 C 2145.780 781.059, 2157.597 793.603, 2160.944 791.535 C 2161.431 791.234, 2161.982 791.446, 2162.169 792.006 C 2162.754 793.762, 2178.469 794.441, 2184.786 792.984 C 2197.527 790.045, 2203.806 784.233, 2208.844 770.712 C 2210.902 765.189, 2211 763.320, 2211 729.720 L 2211 694.515 2218.451 687.325 C 2222.549 683.371, 2228.287 678.374, 2231.201 676.220 C 2234.115 674.067, 2237.126 671.136, 2237.891 669.706 C 2239.916 665.920, 2241.780 665.658, 2244.637 668.760 C 2246.025 670.267, 2246.831 670.868, 2246.426 670.095 C 2245.942 669.171, 2246.085 668.935, 2246.845 669.405 C 2247.480 669.797, 2248 670.924, 2248 671.909 C 2248 672.895, 2249.360 674.743, 2251.023 676.017 C 2256.457 680.182, 2266.506 690.213, 2266.225 691.192 C 2266.074 691.718, 2266.346 691.904, 2266.830 691.605 C 2267.314 691.306, 2268.787 692.272, 2270.105 693.751 C 2271.992 695.869, 2272.076 696.149, 2270.500 695.069 C 2269.400 694.314, 2270.412 695.497, 2272.750 697.697 C 2275.088 699.896, 2277 702.214, 2277 702.848 C 2277 703.482, 2277.482 704, 2278.071 704 C 2279.636 704, 2282.024 706.642, 2281.202 707.464 C 2280.816 707.851, 2281.138 708.017, 2281.918 707.833 C 2282.698 707.650, 2283.929 708.625, 2284.654 710 C 2285.378 711.375, 2285.977 712.093, 2285.985 711.595 C 2285.993 711.097, 2286.889 711.495, 2287.976 712.479 C 2289.063 713.462, 2289.669 714.727, 2289.322 715.288 C 2288.975 715.850, 2289.160 716.019, 2289.732 715.666 C 2290.305 715.312, 2291.329 715.692, 2292.009 716.511 C 2292.689 717.330, 2292.935 718, 2292.556 718 C 2292.178 718, 2295.399 721.487, 2299.716 725.750 C 2314.554 740.403, 2335.455 763.136, 2336.433 765.687 C 2336.737 766.479, 2337.509 766.804, 2338.147 766.409 C 2338.851 765.974, 2339.040 766.127, 2338.627 766.795 C 2338.251 767.403, 2338.869 768.395, 2340 769 C 2341.131 769.605, 2341.785 770.539, 2341.454 771.075 C 2341.122 771.611, 2341.447 771.926, 2342.176 771.775 C 2342.904 771.624, 2343.388 772.062, 2343.250 772.750 C 2343.113 773.437, 2343.563 773.887, 2344.250 773.750 C 2344.938 773.612, 2345.388 774.062, 2345.250 774.750 C 2345.113 775.437, 2345.440 775.887, 2345.978 775.750 C 2346.516 775.612, 2349.778 778.434, 2353.228 782.020 C 2356.678 785.606, 2360.625 789.047, 2362 789.667 C 2370.427 793.468, 2385.460 793.641, 2393.500 790.030 C 2398.341 787.855, 2408.046 778.044, 2410.946 772.392 C 2416.848 760.889, 2412.745 745.981, 2399.154 729.546 C 2397.314 727.321, 2391.464 721, 2386.154 715.500 C 2380.844 710, 2373.809 702.350, 2370.521 698.500 C 2367.232 694.650, 2360.482 687.212, 2355.521 681.971 C 2343.629 669.410, 2337.102 662.275, 2333.591 658 C 2332.010 656.075, 2325.666 649.100, 2319.493 642.500 C 2313.320 635.900, 2306.747 628.700, 2304.886 626.500 C 2303.026 624.300, 2300.208 621.331, 2298.624 619.901 L 2295.745 617.302 2311.487 601.901 C 2320.145 593.431, 2328.414 585.156, 2329.864 583.514 C 2335.563 577.060, 2351.862 561.491, 2358.500 556.163 C 2362.350 553.073, 2368.875 547.342, 2373 543.428 C 2377.125 539.513, 2383.941 533.060, 2388.147 529.087 C 2397.623 520.134, 2402.527 511.276, 2402.311 503.500 C 2402.017 492.920, 2392.774 479.404, 2382.514 474.550 C 2378.222 472.519, 2375.635 472.009, 2369.812 472.044 C 2361.152 472.095, 2353.707 473.378, 2353.198 474.906 C 2352.997 475.508, 2351.951 476, 2350.873 476 C 2349.785 476, 2345.048 479.673, 2340.233 484.250 C 2320.122 503.367, 2265.918 556.207, 2244.062 578 C 2218.856 603.134, 2212.133 609.467, 2211.418 608.751 C 2211.170 608.503, 2210.978 556.029, 2210.992 492.143 C 2211.016 376.877, 2211 375.937, 2208.923 369.743 C 2205.857 360.600, 2200.588 354.188, 2192.500 349.757 C 2189.105 347.897, 2186.610 347.518, 2176 347.253 C 2165.265 346.985, 2162.907 347.218, 2159.303 348.898 M 905 369 C 891.625 369.495, 891.435 369.536, 884.500 373.339 C 870.787 380.861, 865.909 388.116, 865.230 402 C 864.886 409.051, 865.174 411.329, 866.921 415.365 C 869.720 421.830, 872.902 426.179, 874.231 425.357 C 874.865 424.965, 875.020 425.159, 874.607 425.827 C 873.722 427.259, 884 433.959, 888.930 435.165 C 890.894 435.646, 915.675 436.250, 944 436.509 C 972.325 436.768, 995.807 436.984, 996.183 436.990 C 996.558 436.995, 997.153 437.907, 997.505 439.015 C 997.856 440.123, 998.610 440.741, 999.179 440.389 C 999.868 439.963, 999.928 440.544, 999.357 442.125 C 998.886 443.431, 998.500 517.637, 998.500 607.027 L 998.500 769.554 1001.109 774.527 C 1002.544 777.262, 1004.265 779.376, 1004.933 779.225 C 1005.602 779.074, 1005.930 779.304, 1005.663 779.736 C 1005.396 780.168, 1005.812 781.391, 1006.589 782.452 C 1007.365 783.514, 1008 784.089, 1008 783.731 C 1008 783.372, 1009.808 784.851, 1012.017 787.017 C 1019.883 794.727, 1034.623 796.449, 1051.287 791.605 C 1062.331 788.394, 1071.908 776.788, 1072.652 765.712 C 1072.881 762.295, 1073.253 757.700, 1073.477 755.500 C 1073.702 753.300, 1073.911 680.993, 1073.943 594.817 C 1074 438.662, 1074.007 438.133, 1076.015 437.495 C 1077.123 437.144, 1077.840 436.551, 1077.610 436.178 C 1077.380 435.805, 1101.336 435.500, 1130.846 435.500 L 1184.500 435.500 1189.828 432.548 C 1200.337 426.727, 1206.177 417.562, 1206.838 405.853 C 1207.735 389.983, 1199.045 377.719, 1182.199 371.078 C 1177.419 369.194, 1173.269 369.124, 1047.883 368.817 C 976.722 368.643, 912.425 368.725, 905 369 M 436.377 446.198 C 436.082 446.676, 434.414 446.939, 432.670 446.783 C 430.927 446.628, 423.650 446.861, 416.500 447.302 C 399.726 448.337, 391.999 451.011, 384.402 458.408 C 375.381 467.191, 375.782 462.739, 375.631 555.916 C 375.477 650.579, 374.987 645.223, 384.651 654.553 C 392.273 661.912, 397.689 664.743, 406.667 666.060 C 410.425 666.611, 416.650 667.532, 420.500 668.107 C 431.594 669.764, 506.568 668.601, 515.840 666.628 L 523.179 665.066 538.340 680.351 C 553 695.132, 553.706 695.692, 559.735 697.318 C 567.430 699.394, 571.222 699.416, 576.959 697.418 C 583.182 695.252, 587.384 691.932, 601.870 677.738 L 614.500 665.363 626.338 665.212 C 636.820 665.080, 638.803 664.766, 643.654 662.471 C 646.667 661.045, 651.309 657.769, 653.968 655.189 C 663.635 645.816, 664.177 639.859, 663.775 547.371 C 663.466 476.076, 663.446 475.453, 661.258 469.670 C 660.045 466.464, 659.094 463.539, 659.145 463.170 C 659.400 461.312, 658.906 459.940, 658.151 460.407 C 657.684 460.696, 656.689 459.787, 655.940 458.388 C 654.798 456.254, 652 453.929, 650 453.452 C 649.725 453.386, 648.375 452.861, 647 452.285 C 645.625 451.709, 642.758 450.509, 640.628 449.619 C 638.498 448.728, 635.723 448, 634.461 448 C 633.199 448, 631.979 447.438, 631.750 446.750 C 631.421 445.762, 610.942 445.482, 534.124 445.415 C 480.112 445.368, 436.676 445.716, 436.377 446.198 M 1315 465.033 C 1310.875 465.447, 1306.150 466.329, 1304.500 466.993 C 1302.850 467.657, 1300.150 468.424, 1298.500 468.699 C 1296.850 468.973, 1293.728 470.053, 1291.562 471.099 C 1289.396 472.144, 1287.111 473, 1286.485 473 C 1284.454 473, 1273.153 477.926, 1267.756 481.164 C 1253.227 489.880, 1247.623 494.196, 1237.584 504.402 C 1219.404 522.884, 1209.443 538.001, 1201.343 559.400 C 1191.544 585.287, 1189.528 597.405, 1189.512 630.500 C 1189.500 655.292, 1190.352 665.709, 1193.723 682 C 1196.045 693.223, 1205.327 718, 1207.209 718 C 1207.709 718, 1207.859 718.419, 1207.543 718.931 C 1207.226 719.443, 1207.425 720.144, 1207.984 720.490 C 1208.543 720.835, 1209 721.742, 1209 722.505 C 1209 724.854, 1216.135 736.214, 1219.918 739.890 C 1221.888 741.804, 1222.375 742.502, 1221 741.442 L 1218.500 739.514 1220.966 742.507 C 1222.322 744.153, 1225.247 747.215, 1227.466 749.311 C 1229.685 751.408, 1236.044 757.595, 1241.598 763.061 C 1247.153 768.528, 1252.060 773, 1252.504 773 C 1252.948 773, 1254.704 774.061, 1256.406 775.358 C 1258.108 776.655, 1261.750 778.917, 1264.500 780.385 C 1267.250 781.852, 1270.850 783.928, 1272.500 784.996 C 1276.491 787.581, 1280.860 790.039, 1281.479 790.048 C 1282.173 790.057, 1285.061 790.987, 1287.797 792.081 C 1289.060 792.587, 1291.092 793, 1292.311 793 C 1293.531 793, 1296.997 793.907, 1300.014 795.016 C 1308.566 798.159, 1309.095 798.216, 1334.196 798.722 C 1360.091 799.244, 1358.440 799.474, 1380 792.325 C 1386.253 790.251, 1402.711 781.624, 1410.500 776.336 C 1411.600 775.590, 1414.082 773.919, 1416.016 772.625 C 1417.949 771.330, 1421.974 767.735, 1424.959 764.635 C 1427.944 761.536, 1430.714 759, 1431.114 759 C 1431.514 759, 1432.130 760.463, 1432.483 762.250 C 1432.836 764.038, 1433.526 766.625, 1434.016 768 C 1434.506 769.375, 1435.395 772.413, 1435.992 774.750 C 1436.647 777.316, 1437.656 779, 1438.539 779 C 1439.342 779, 1440 779.393, 1440 779.874 C 1440 781.276, 1447.424 789, 1448.772 789 C 1449.447 789, 1450 789.401, 1450 789.891 C 1450 790.812, 1451.388 791.128, 1463.928 793.067 C 1470.254 794.045, 1472.479 793.958, 1478.928 792.481 C 1485.447 790.989, 1487.152 790.118, 1491.187 786.224 C 1493.764 783.736, 1497.364 778.730, 1499.187 775.100 L 1502.500 768.500 1502.500 630 L 1502.500 491.500 1499.668 484.810 C 1496.391 477.071, 1489.666 470.099, 1482.217 466.717 C 1478.364 464.968, 1475.669 464.587, 1467.500 464.634 C 1455.416 464.705, 1451.402 466.385, 1442.918 474.922 C 1438.417 479.451, 1436.892 481.873, 1435.158 487.239 C 1433.971 490.912, 1432.993 494.949, 1432.985 496.209 C 1432.950 501.327, 1431.405 501.628, 1426.822 497.409 C 1420.758 491.829, 1396.069 477.842, 1386.500 474.566 C 1382.100 473.060, 1377.825 471.485, 1377 471.067 C 1376.175 470.648, 1373.025 469.736, 1370 469.040 C 1366.975 468.344, 1363.384 467.338, 1362.019 466.804 C 1356.279 464.557, 1329.709 463.556, 1315 465.033 M 1702 464.613 C 1691.646 465.920, 1672 471.566, 1672 473.235 C 1672 473.721, 1671.598 473.869, 1671.106 473.566 C 1669.636 472.657, 1653.905 479.655, 1650.343 482.803 C 1649.286 483.736, 1647.904 484.603, 1647.272 484.730 C 1641.167 485.949, 1613.918 511.167, 1605.919 523 C 1600.196 531.466, 1590.324 549.149, 1587.776 555.500 C 1582.519 568.600, 1578.135 584.463, 1576.430 596.556 C 1572.807 622.254, 1574.635 669.226, 1579.951 687.051 C 1583.343 698.427, 1584.317 701, 1585.227 701 C 1585.717 701, 1585.875 701.393, 1585.578 701.874 C 1584.669 703.345, 1591.392 718.612, 1594 721 C 1595.276 722.168, 1597.988 727, 1597.368 727 C 1596.995 727, 1597.366 727.788, 1598.193 728.750 C 1599.646 730.442, 1601.236 733.669, 1601.414 735.286 C 1601.461 735.719, 1602.175 736.500, 1603 737.021 C 1603.825 737.543, 1604.094 737.976, 1603.597 737.985 C 1603.100 737.993, 1603.550 738.797, 1604.597 739.772 C 1608.012 742.952, 1611.536 747.342, 1610 746.504 C 1607.066 744.903, 1631.571 768.477, 1635.500 771.036 C 1637.700 772.468, 1640.175 774.303, 1641 775.112 C 1641.825 775.922, 1643.963 777.183, 1645.750 777.914 C 1647.537 778.645, 1649 779.608, 1649 780.054 C 1649 780.500, 1650.013 781.182, 1651.250 781.568 C 1652.487 781.955, 1656.866 784.235, 1660.979 786.636 C 1665.093 789.036, 1669.454 791, 1670.670 791 C 1671.887 791, 1673.160 791.450, 1673.500 792 C 1673.840 792.550, 1675.104 793.007, 1676.309 793.015 C 1677.514 793.023, 1680.476 793.717, 1682.892 794.559 C 1692.556 797.924, 1702.290 799, 1723.082 799 C 1741.125 799, 1744.516 798.741, 1750.582 796.901 C 1764.975 792.533, 1772.644 789.745, 1777 787.299 C 1779.475 785.909, 1783.525 783.634, 1786 782.244 C 1794.253 777.609, 1806.244 768.709, 1811.686 763.179 C 1816.796 757.988, 1817.141 757.807, 1818.502 759.605 C 1819.792 761.309, 1820.543 766.272, 1820.052 769.850 C 1819.950 770.593, 1820.258 770.958, 1820.737 770.662 C 1821.216 770.366, 1822.109 771.449, 1822.720 773.069 C 1823.413 774.906, 1823.452 775.779, 1822.823 775.390 C 1820.274 773.815, 1825.022 780.061, 1829.550 784.239 C 1833.489 787.874, 1842.803 793.334, 1844.263 792.864 C 1844.393 792.822, 1847.542 793.113, 1851.259 793.511 C 1855.370 793.951, 1859.092 793.827, 1860.759 793.193 C 1862.267 792.620, 1865.103 791.888, 1867.062 791.566 C 1872.025 790.750, 1881.183 782.386, 1884.406 775.724 L 1886.935 770.500 1887.052 630.500 C 1887.177 480.910, 1887.401 488.477, 1882.569 479.134 C 1880.808 475.728, 1871.963 468.760, 1866.189 466.231 C 1863.590 465.092, 1859.547 464.619, 1852.500 464.629 C 1844.084 464.642, 1841.787 465.006, 1838 466.928 C 1827.116 472.453, 1819.696 484.193, 1818.838 497.250 C 1818.515 502.155, 1817.071 502.052, 1810.659 496.666 C 1806.222 492.938, 1802.851 490.703, 1790.503 483.299 C 1785.615 480.368, 1776.165 476, 1774.712 476 C 1773.835 476, 1772.878 475.612, 1772.585 475.137 C 1772.291 474.663, 1769.902 473.693, 1767.276 472.982 C 1764.649 472.271, 1762.044 471.343, 1761.487 470.919 C 1760.929 470.495, 1758.229 469.613, 1755.487 468.959 C 1752.744 468.305, 1748.586 467.152, 1746.247 466.396 C 1741.982 465.018, 1709.246 463.699, 1702 464.613 M 409 553.066 C 409 619.388, 409.151 626.294, 410.636 627.779 C 412.105 629.248, 417.073 629.411, 459.386 629.382 C 485.299 629.364, 512.905 629.520, 520.734 629.727 L 534.968 630.105 545.475 640.163 C 551.254 645.694, 555.734 650.621, 555.432 651.110 C 555.129 651.600, 555.584 652, 556.441 652 C 557.298 652, 558 652.525, 558 653.167 C 558 653.808, 558.288 654.045, 558.641 653.692 C 559.295 653.038, 564.955 658.889, 564.984 660.250 C 564.993 660.663, 565.788 661.007, 566.750 661.015 C 568.219 661.028, 568.263 661.180, 567.028 661.962 C 565.775 662.754, 565.822 662.994, 567.345 663.579 C 568.329 663.957, 569.644 663.756, 570.267 663.133 C 571.111 662.289, 571.094 662, 570.200 662 C 567.621 662, 569.178 660.055, 572.250 659.438 C 574.430 659.001, 576.653 657.358, 579 654.450 C 580.925 652.065, 583.321 649.822, 584.325 649.465 C 585.329 649.109, 585.894 648.561, 585.581 648.248 C 585.268 647.935, 586.022 647.152, 587.256 646.508 C 588.490 645.863, 589.376 644.777, 589.225 644.094 C 589.074 643.410, 589.325 643.083, 589.784 643.366 C 590.242 643.650, 593.216 641.208, 596.393 637.941 L 602.170 632 611.835 631.985 C 618.820 631.974, 621.084 631.681, 620 630.930 C 618.890 630.161, 619.736 629.972, 623.250 630.203 C 625.862 630.374, 628 630.147, 628 629.698 C 628 629.249, 628.399 629.128, 628.886 629.430 C 629.374 629.731, 630.043 628.970, 630.373 627.739 C 630.703 626.507, 630.979 592.845, 630.986 552.932 L 631 480.365 520 480.177 L 409 479.988 409 553.066 M 479.966 515.820 C 474.972 518.034, 471 523.849, 471 528.948 C 471 536.264, 478.908 544, 486.387 544 C 494.176 544, 501.259 538.468, 502.596 531.340 C 503.485 526.599, 500.198 519.701, 495.758 516.994 C 492.475 514.992, 483.362 514.315, 479.966 515.820 M 543.241 516.995 C 536.946 520.833, 534.242 528.968, 537.271 534.954 C 537.955 536.304, 540.458 538.892, 542.834 540.704 C 550.528 546.573, 559.935 544.672, 565.726 536.078 C 568.329 532.215, 568.672 527.270, 566.532 524.441 C 564.833 522.196, 564.545 520.601, 566 521.500 C 566.550 521.840, 567 521.905, 567 521.646 C 567 521.386, 565.111 519.784, 562.803 518.087 C 559.202 515.438, 557.746 515.001, 552.553 515.004 C 548.278 515.006, 545.543 515.591, 543.241 516.995 M 1334 527.966 C 1327.248 529.261, 1311.481 534.666, 1305.631 537.691 C 1296.434 542.447, 1281.219 556.334, 1274.778 565.850 C 1269.372 573.838, 1261.526 592.468, 1257.867 606 C 1255.848 613.472, 1255.565 616.859, 1255.535 634 C 1255.511 647.619, 1255.909 654.857, 1256.855 658 C 1265.732 687.472, 1270.172 696.222, 1282.479 708.500 C 1287.441 713.450, 1294.829 719.914, 1298.898 722.865 C 1316.333 735.509, 1344.243 739.898, 1367.500 733.654 C 1382.232 729.698, 1392.106 724.242, 1404.682 713.108 C 1406.613 711.399, 1408.354 710, 1408.551 710 C 1409.349 710, 1413.523 705.163, 1413.833 703.879 C 1414.016 703.120, 1415.889 699.975, 1417.995 696.890 C 1428.743 681.143, 1435.503 659.502, 1436.704 637 C 1437.238 626.980, 1435.898 611.503, 1434.079 606.701 C 1433.621 605.490, 1431.734 599.550, 1429.888 593.500 C 1428.041 587.450, 1426.232 582.275, 1425.868 582 C 1425.505 581.725, 1424.693 579.587, 1424.065 577.250 C 1423.437 574.913, 1422.559 573, 1422.113 573 C 1421.668 573, 1420.465 571.140, 1419.440 568.867 C 1417.035 563.533, 1402.123 548.344, 1393.013 541.948 C 1379.052 532.147, 1349.145 525.061, 1334 527.966 M 1719 527.950 C 1713.397 528.800, 1696.972 534.462, 1691.122 537.560 C 1682.319 542.222, 1669.428 553.149, 1664.058 560.500 C 1653.353 575.154, 1648.233 586.685, 1642.333 609.422 C 1640.075 618.121, 1639.725 621.484, 1639.773 634 C 1639.831 648.951, 1639.947 649.631, 1646.526 673.457 C 1650.630 688.322, 1666.010 710.221, 1678 718.272 C 1679.925 719.564, 1683.750 722.231, 1686.500 724.197 C 1702.495 735.635, 1729.944 739.607, 1752 733.674 C 1764.610 730.283, 1768.011 728.790, 1777.609 722.432 C 1788.162 715.442, 1795.237 708.382, 1802.143 697.952 C 1809.009 687.582, 1810.241 685.190, 1814.097 674.754 C 1823.692 648.778, 1824.293 622.198, 1815.862 596.706 C 1813.674 590.089, 1811.216 583.385, 1810.401 581.808 C 1809.585 580.231, 1809.188 578.504, 1809.518 577.971 C 1809.848 577.437, 1809.641 577, 1809.059 577 C 1808.477 577, 1808 576.100, 1808 575 C 1808 573.900, 1807.563 573, 1807.029 573 C 1806.495 573, 1805.161 571.087, 1804.066 568.750 C 1802.970 566.413, 1802.055 564.950, 1802.033 565.500 C 1801.994 566.452, 1797.647 560.101, 1797.548 558.948 C 1797.455 557.871, 1788.443 549.726, 1784.702 547.338 C 1782.613 546.005, 1780.645 544.238, 1780.328 543.412 C 1779.577 541.454, 1767.958 536.011, 1756.130 532.076 C 1742.147 527.423, 1730.792 526.161, 1719 527.950 M 435.250 546.015 C 431.718 549.228, 430.977 553.333, 433.250 557.097 C 435.862 561.422, 442.746 568.354, 449.151 573.107 C 452.809 575.822, 456.051 578.690, 456.354 579.481 C 456.658 580.272, 459.290 582.121, 462.203 583.590 C 465.116 585.060, 467.725 586.545, 468 586.891 C 469.485 588.756, 490.820 595.687, 502.500 598.097 C 511.630 599.982, 529.193 599.783, 537.861 597.697 C 548.822 595.059, 565.091 589.488, 571.966 586.017 C 581.909 580.998, 599.631 565.713, 604.560 557.905 C 607.180 553.754, 607.183 553.732, 605.409 549.799 C 601.241 540.556, 595.986 540.758, 584.850 550.591 C 578.197 556.465, 562.937 566.122, 557.176 568.103 C 539.672 574.122, 534.499 575.245, 521.948 575.748 C 510.692 576.199, 508.301 575.977, 498.807 573.600 C 484.810 570.095, 476.830 566.753, 470.067 561.563 C 467.005 559.214, 463.150 556.593, 461.500 555.741 C 459.850 554.888, 457.375 552.959, 456 551.454 C 452.094 547.179, 444.923 542.997, 441.554 543.029 C 439.599 543.048, 437.331 544.123, 435.250 546.015" stroke="none" fill="#4d7298" fill-rule="evenodd"/><path d="M 408.286 336.079 C 372.917 340.298, 334.817 361.712, 313.757 389.207 C 297.623 410.272, 285.762 438.593, 283.016 462.608 C 282.220 469.570, 281.992 504.347, 282.245 580 C 282.646 699.918, 282.047 689.672, 290.042 713.326 C 302.289 749.559, 328.117 778.988, 363 796.456 C 377.613 803.774, 381.701 805.170, 396.500 807.900 C 407.064 809.848, 411.898 809.939, 518.500 810.202 L 629.500 810.474 641 808.229 C 655.913 805.317, 659.982 803.955, 674.865 796.894 C 689.894 789.763, 707.608 777.309, 717.015 767.259 C 732.008 751.243, 746.996 724.398, 752.800 703.167 L 755.442 693.500 755.796 581.500 C 756.165 464.853, 755.904 455.316, 751.963 441.121 C 744.200 413.164, 723.922 382.669, 702.033 366.035 C 689.828 356.759, 672.857 347.626, 659.500 343.145 C 635.444 335.073, 645.403 335.641, 524 335.418 C 464.325 335.308, 412.253 335.605, 408.286 336.079 M 420 337.105 C 407.110 337.608, 402.564 338.228, 393 340.789 C 377.336 344.983, 369.193 348.169, 358 354.487 C 331.737 369.309, 317.980 382.792, 303.400 408 C 296.433 420.045, 294.428 424.845, 289.406 441.500 C 284.581 457.504, 284.214 464.387, 285.138 521.590 C 285.555 547.391, 285.896 596.002, 285.895 629.616 C 285.894 694.843, 285.880 694.612, 291.029 710.214 C 294.705 721.349, 298.155 730, 298.921 730 C 299.331 730, 299.670 730.563, 299.674 731.250 C 299.688 733.632, 306.184 744.004, 307.250 743.346 C 307.866 742.965, 308.015 743.166, 307.606 743.828 C 306.733 745.241, 311.369 752.269, 312.499 751.245 C 312.951 750.835, 313.014 751.034, 312.640 751.688 C 311.807 753.140, 320.255 763.612, 321.947 763.225 C 322.608 763.074, 322.895 763.361, 322.585 763.862 C 322.005 764.801, 324.840 767.696, 325.904 767.250 C 326.232 767.112, 326.520 767.563, 326.545 768.250 C 326.570 768.938, 327.166 769.376, 327.870 769.225 C 328.573 769.074, 328.901 769.351, 328.599 769.840 C 327.996 770.815, 333.672 775.758, 344.530 783.712 C 352.849 789.807, 377.188 801.719, 385 803.518 C 388.025 804.215, 393.650 805.132, 397.500 805.556 C 407.432 806.650, 642.606 806.275, 644.753 805.162 C 645.714 804.663, 648.750 803.943, 651.500 803.561 C 660.864 802.259, 681.350 792.868, 694.891 783.669 C 699.076 780.826, 707.054 774.100, 712.620 768.722 C 728.325 753.547, 739.031 736.420, 748.696 711.007 C 751.055 704.804, 751.525 701.681, 754.035 675.500 C 754.723 668.331, 754.968 630.021, 754.739 565.500 C 754.317 446.325, 754.608 449.826, 742.798 422 C 740.580 416.775, 737.598 410.475, 736.170 408 C 724.343 387.501, 704.296 367.211, 686 357.220 C 682.975 355.569, 678.473 353.067, 675.996 351.661 C 670.038 348.279, 653.390 342.536, 640.705 339.487 L 630.500 337.034 533 336.767 C 479.375 336.620, 428.525 336.772, 420 337.105 M 1995.500 346.864 C 1993.300 347.865, 1988.989 351.398, 1985.919 354.716 C 1980.088 361.019, 1976.750 366.967, 1974.979 374.209 C 1973.611 379.807, 1972.510 691.238, 1973.703 735.508 L 1974.565 767.515 1978.033 774.467 C 1982.570 783.563, 1991.078 792.362, 1997.057 794.141 C 2004.152 796.253, 2019.421 795.721, 2026.120 793.128 C 2032.840 790.528, 2041.906 781.615, 2045.294 774.279 L 2047.500 769.500 2047.500 569.500 L 2047.500 369.500 2044.830 364.500 C 2041.188 357.681, 2031.583 348.457, 2026.124 346.538 C 2019.629 344.255, 2000.794 344.455, 1995.500 346.864 M 2160.154 346.531 C 2150.295 350.812, 2141.879 361.799, 2140.054 372.771 C 2139.248 377.616, 2139.014 434.101, 2139.217 574.500 L 2139.500 769.500 2142.215 775.295 C 2146.048 783.478, 2155.015 792.197, 2161.500 794.048 C 2168.496 796.045, 2183.253 795.870, 2189.523 793.716 C 2197.238 791.065, 2204.332 784.232, 2208.616 775.326 L 2212.232 767.807 2212.717 731.153 C 2213.048 706.050, 2213.557 694.065, 2214.331 693.119 C 2214.953 692.360, 2220.195 687.677, 2225.981 682.713 C 2231.766 677.749, 2237.625 672.416, 2239 670.861 L 2241.500 668.035 2249.127 675.767 C 2253.322 680.020, 2268.397 695.916, 2282.627 711.092 C 2354.807 788.069, 2357.356 790.648, 2363.606 793.054 C 2372.759 796.576, 2384.463 796.118, 2393.596 791.879 C 2400.142 788.842, 2409.008 779.673, 2412.867 771.951 C 2420.844 755.987, 2414.781 742.426, 2386.509 713 C 2380.961 707.225, 2374.448 700.250, 2372.036 697.500 C 2369.624 694.750, 2362.638 687.100, 2356.511 680.500 C 2350.385 673.900, 2341.409 664.078, 2336.564 658.673 C 2331.719 653.268, 2326.798 647.863, 2325.628 646.661 C 2324.457 645.459, 2320.125 640.671, 2316 636.020 C 2311.875 631.370, 2306.266 625.154, 2303.534 622.208 L 2298.569 616.851 2308.034 607.751 C 2313.241 602.746, 2327.625 588.850, 2340 576.872 C 2352.375 564.893, 2370.291 547.805, 2379.812 538.898 C 2394.813 524.865, 2397.584 521.791, 2400.562 515.876 C 2405.139 506.789, 2405.255 500.415, 2401.006 491.514 C 2396.759 482.614, 2388.075 473.904, 2380.712 471.158 C 2371.265 467.635, 2359.659 468.538, 2349.852 473.559 C 2346.973 475.034, 2334.700 486.565, 2309.471 511.500 C 2306.133 514.800, 2295.123 525.375, 2285.006 535 C 2264.293 554.705, 2242.235 576.502, 2236.938 582.500 C 2230.388 589.916, 2214.069 605.402, 2213.453 604.786 C 2213.117 604.450, 2212.860 556.098, 2212.882 497.338 C 2212.904 438.577, 2212.574 385.951, 2212.148 380.391 C 2211.535 372.400, 2210.788 369.086, 2208.580 364.574 C 2205.172 357.608, 2198.200 350.600, 2191.500 347.404 C 2187.113 345.312, 2185.090 345.023, 2175 345.049 C 2167.203 345.069, 2162.423 345.546, 2160.154 346.531 M 1995.248 349.046 C 1989.774 351.833, 1982.454 359.997, 1979.149 367 L 1976.554 372.500 1976.919 465.500 C 1977.120 516.650, 1977.393 605.975, 1977.526 664 C 1977.659 722.025, 1977.820 770.089, 1977.884 770.809 C 1977.948 771.533, 1978.516 771.799, 1979.155 771.405 C 1979.880 770.956, 1980.037 771.131, 1979.577 771.875 C 1978.600 773.456, 1982.770 780.407, 1988.146 786.158 C 1991.553 789.803, 1993.804 791.198, 1998.500 792.573 C 2006.405 794.887, 2014.869 794.732, 2023.646 792.111 C 2030.026 790.206, 2031.426 789.299, 2036.707 783.654 C 2047.535 772.079, 2046.500 794.650, 2046.500 570 C 2046.500 346.031, 2047.439 367.506, 2037.179 356.748 C 2028.990 348.162, 2027.711 347.670, 2012.500 347.245 C 2000.729 346.916, 1999.098 347.086, 1995.248 349.046 M 2159.303 348.898 C 2153.984 351.378, 2146.739 358.896, 2143.950 364.829 C 2142.525 367.861, 2141.464 372.967, 2140.806 379.953 C 2140.170 386.714, 2139.990 457.981, 2140.303 578.500 C 2140.780 761.991, 2140.839 766.637, 2142.753 772.225 C 2145.780 781.059, 2157.597 793.603, 2160.944 791.535 C 2161.431 791.234, 2161.982 791.446, 2162.169 792.006 C 2162.754 793.762, 2178.469 794.441, 2184.786 792.984 C 2197.527 790.045, 2203.806 784.233, 2208.844 770.712 C 2210.902 765.189, 2211 763.320, 2211 729.720 L 2211 694.515 2218.451 687.325 C 2222.549 683.371, 2228.287 678.374, 2231.201 676.220 C 2234.115 674.067, 2237.126 671.136, 2237.891 669.706 C 2239.916 665.920, 2241.780 665.658, 2244.637 668.760 C 2246.025 670.267, 2246.831 670.868, 2246.426 670.095 C 2245.942 669.171, 2246.085 668.935, 2246.845 669.405 C 2247.480 669.797, 2248 670.924, 2248 671.909 C 2248 672.895, 2249.360 674.743, 2251.023 676.017 C 2256.457 680.182, 2266.506 690.213, 2266.225 691.192 C 2266.074 691.718, 2266.346 691.904, 2266.830 691.605 C 2267.314 691.306, 2268.787 692.272, 2270.105 693.751 C 2271.992 695.869, 2272.076 696.149, 2270.500 695.069 C 2269.400 694.314, 2270.412 695.497, 2272.750 697.697 C 2275.088 699.896, 2277 702.214, 2277 702.848 C 2277 703.482, 2277.482 704, 2278.071 704 C 2279.636 704, 2282.024 706.642, 2281.202 707.464 C 2280.816 707.851, 2281.138 708.017, 2281.918 707.833 C 2282.698 707.650, 2283.929 708.625, 2284.654 710 C 2285.378 711.375, 2285.977 712.093, 2285.985 711.595 C 2285.993 711.097, 2286.889 711.495, 2287.976 712.479 C 2289.063 713.462, 2289.669 714.727, 2289.322 715.288 C 2288.975 715.850, 2289.160 716.019, 2289.732 715.666 C 2290.305 715.312, 2291.329 715.692, 2292.009 716.511 C 2292.689 717.330, 2292.935 718, 2292.556 718 C 2292.178 718, 2295.399 721.487, 2299.716 725.750 C 2314.554 740.403, 2335.455 763.136, 2336.433 765.687 C 2336.737 766.479, 2337.509 766.804, 2338.147 766.409 C 2338.851 765.974, 2339.040 766.127, 2338.627 766.795 C 2338.251 767.403, 2338.869 768.395, 2340 769 C 2341.131 769.605, 2341.785 770.539, 2341.454 771.075 C 2341.122 771.611, 2341.447 771.926, 2342.176 771.775 C 2342.904 771.624, 2343.388 772.062, 2343.250 772.750 C 2343.113 773.437, 2343.563 773.887, 2344.250 773.750 C 2344.938 773.612, 2345.388 774.062, 2345.250 774.750 C 2345.113 775.437, 2345.440 775.887, 2345.978 775.750 C 2346.516 775.612, 2349.778 778.434, 2353.228 782.020 C 2356.678 785.606, 2360.625 789.047, 2362 789.667 C 2370.427 793.468, 2385.460 793.641, 2393.500 790.030 C 2398.341 787.855, 2408.046 778.044, 2410.946 772.392 C 2416.848 760.889, 2412.745 745.981, 2399.154 729.546 C 2397.314 727.321, 2391.464 721, 2386.154 715.500 C 2380.844 710, 2373.809 702.350, 2370.521 698.500 C 2367.232 694.650, 2360.482 687.212, 2355.521 681.971 C 2343.629 669.410, 2337.102 662.275, 2333.591 658 C 2332.010 656.075, 2325.666 649.100, 2319.493 642.500 C 2313.320 635.900, 2306.747 628.700, 2304.886 626.500 C 2303.026 624.300, 2300.208 621.331, 2298.624 619.901 L 2295.745 617.302 2311.487 601.901 C 2320.145 593.431, 2328.414 585.156, 2329.864 583.514 C 2335.563 577.060, 2351.862 561.491, 2358.500 556.163 C 2362.350 553.073, 2368.875 547.342, 2373 543.428 C 2377.125 539.513, 2383.941 533.060, 2388.147 529.087 C 2397.623 520.134, 2402.527 511.276, 2402.311 503.500 C 2402.017 492.920, 2392.774 479.404, 2382.514 474.550 C 2378.222 472.519, 2375.635 472.009, 2369.812 472.044 C 2361.152 472.095, 2353.707 473.378, 2353.198 474.906 C 2352.997 475.508, 2351.951 476, 2350.873 476 C 2349.785 476, 2345.048 479.673, 2340.233 484.250 C 2320.122 503.367, 2265.918 556.207, 2244.062 578 C 2218.856 603.134, 2212.133 609.467, 2211.418 608.751 C 2211.170 608.503, 2210.978 556.029, 2210.992 492.143 C 2211.016 376.877, 2211 375.937, 2208.923 369.743 C 2205.857 360.600, 2200.588 354.188, 2192.500 349.757 C 2189.105 347.897, 2186.610 347.518, 2176 347.253 C 2165.265 346.985, 2162.907 347.218, 2159.303 348.898 M 893.500 368.013 C 888.461 369.050, 876.820 375.498, 872.661 379.555 C 868.538 383.577, 865.236 390.356, 863.912 397.519 C 861.006 413.239, 868.791 427.511, 884.652 435.540 L 890.500 438.500 943 439 L 995.500 439.500 995.727 573.500 C 996.047 762.239, 996.129 768.611, 998.287 773.428 C 1000.330 777.989, 1008.711 787.314, 1014.226 791.163 C 1021.924 796.535, 1040.712 797.325, 1052.844 792.786 C 1060.092 790.073, 1069.022 781.690, 1072.752 774.096 L 1075.500 768.500 1076 604 L 1076.500 439.500 1128.500 438.994 C 1184.834 438.445, 1183.364 438.589, 1192.636 432.726 C 1207.842 423.109, 1212.729 404.096, 1204.303 387.333 C 1200.864 380.492, 1195.791 376.003, 1186.052 371.185 L 1178.605 367.500 1038.052 367.345 C 960.749 367.259, 895.700 367.560, 893.500 368.013 M 905 369 C 891.625 369.495, 891.435 369.536, 884.500 373.339 C 870.787 380.861, 865.909 388.116, 865.230 402 C 864.886 409.051, 865.174 411.329, 866.921 415.365 C 869.720 421.830, 872.902 426.179, 874.231 425.357 C 874.865 424.965, 875.020 425.159, 874.607 425.827 C 873.722 427.259, 884 433.959, 888.930 435.165 C 890.894 435.646, 915.675 436.250, 944 436.509 C 972.325 436.768, 995.807 436.984, 996.183 436.990 C 996.558 436.995, 997.153 437.907, 997.505 439.015 C 997.856 440.123, 998.610 440.741, 999.179 440.389 C 999.868 439.963, 999.928 440.544, 999.357 442.125 C 998.886 443.431, 998.500 517.637, 998.500 607.027 L 998.500 769.554 1001.109 774.527 C 1002.544 777.262, 1004.265 779.376, 1004.933 779.225 C 1005.602 779.074, 1005.930 779.304, 1005.663 779.736 C 1005.396 780.168, 1005.812 781.391, 1006.589 782.452 C 1007.365 783.514, 1008 784.089, 1008 783.731 C 1008 783.372, 1009.808 784.851, 1012.017 787.017 C 1019.883 794.727, 1034.623 796.449, 1051.287 791.605 C 1062.331 788.394, 1071.908 776.788, 1072.652 765.712 C 1072.881 762.295, 1073.253 757.700, 1073.477 755.500 C 1073.702 753.300, 1073.911 680.993, 1073.943 594.817 C 1074 438.662, 1074.007 438.133, 1076.015 437.495 C 1077.123 437.144, 1077.840 436.551, 1077.610 436.178 C 1077.380 435.805, 1101.336 435.500, 1130.846 435.500 L 1184.500 435.500 1189.828 432.548 C 1200.337 426.727, 1206.177 417.562, 1206.838 405.853 C 1207.735 389.983, 1199.045 377.719, 1182.199 371.078 C 1177.419 369.194, 1173.269 369.124, 1047.883 368.817 C 976.722 368.643, 912.425 368.725, 905 369 M 436.377 446.198 C 436.082 446.676, 434.414 446.939, 432.670 446.783 C 430.927 446.628, 423.650 446.861, 416.500 447.302 C 399.726 448.337, 391.999 451.011, 384.402 458.408 C 375.381 467.191, 375.782 462.739, 375.631 555.916 C 375.477 650.579, 374.987 645.223, 384.651 654.553 C 392.273 661.912, 397.689 664.743, 406.667 666.060 C 410.425 666.611, 416.650 667.532, 420.500 668.107 C 431.594 669.764, 506.568 668.601, 515.840 666.628 L 523.179 665.066 538.340 680.351 C 553 695.132, 553.706 695.692, 559.735 697.318 C 567.430 699.394, 571.222 699.416, 576.959 697.418 C 583.182 695.252, 587.384 691.932, 601.870 677.738 L 614.500 665.363 626.338 665.212 C 636.820 665.080, 638.803 664.766, 643.654 662.471 C 646.667 661.045, 651.309 657.769, 653.968 655.189 C 663.635 645.816, 664.177 639.859, 663.775 547.371 C 663.466 476.076, 663.446 475.453, 661.258 469.670 C 660.045 466.464, 659.094 463.539, 659.145 463.170 C 659.400 461.312, 658.906 459.940, 658.151 460.407 C 657.684 460.696, 656.689 459.787, 655.940 458.388 C 654.798 456.254, 652 453.929, 650 453.452 C 649.725 453.386, 648.375 452.861, 647 452.285 C 645.625 451.709, 642.758 450.509, 640.628 449.619 C 638.498 448.728, 635.723 448, 634.461 448 C 633.199 448, 631.979 447.438, 631.750 446.750 C 631.421 445.762, 610.942 445.482, 534.124 445.415 C 480.112 445.368, 436.676 445.716, 436.377 446.198 M 399.160 451.499 C 392.681 453.326, 385.990 457.964, 382.439 463.089 C 380.494 465.895, 379.555 468.944, 378.857 474.722 C 378.310 479.244, 378.035 516.343, 378.205 562.526 C 378.483 637.916, 378.606 642.713, 380.345 646.210 C 382.844 651.235, 390.039 657.677, 396.325 660.518 L 401.500 662.856 463.397 663.178 L 525.295 663.500 529.397 668.492 C 537.071 677.829, 552.428 692.216, 556.862 694.220 C 559.789 695.544, 563.474 696.207, 568.067 696.235 C 578.426 696.300, 583.975 693.156, 597.500 679.559 C 614.642 662.325, 613.113 663.209, 625.755 663.217 C 637.892 663.225, 642.420 661.995, 649.353 656.806 C 654.301 653.103, 657.481 648.948, 659.234 643.898 C 660.882 639.151, 661.585 483.242, 660 474.102 C 658.027 462.728, 654.051 457.564, 643.760 453.012 C 639.201 450.996, 637.332 450.957, 521.815 450.479 C 419.358 450.055, 403.824 450.184, 399.160 451.499 M 1317 462.583 C 1301.846 464.313, 1279.222 472.252, 1265.108 480.793 C 1248.932 490.581, 1242.977 495.149, 1234.298 504.425 C 1221.218 518.405, 1212.571 530.573, 1206.084 544.125 C 1191.283 575.049, 1186.565 596.844, 1186.625 634 C 1186.671 662.590, 1189.444 680.247, 1196.995 700.049 C 1207.078 726.490, 1217.485 743, 1235.833 761.658 C 1246.811 772.821, 1259.638 781.614, 1278.030 790.583 C 1283.732 793.364, 1305.819 799.583, 1316.923 801.534 C 1341.247 805.809, 1375.152 799.220, 1397.922 785.793 C 1412.389 777.263, 1423.124 769.681, 1426.303 765.750 C 1427.970 763.688, 1429.603 762, 1429.931 762 C 1430.259 762, 1431.049 764.201, 1431.688 766.890 C 1433.685 775.297, 1436.613 780.311, 1443.240 786.675 C 1450.970 794.098, 1454.808 795.457, 1468 795.446 C 1485.022 795.431, 1492.542 790.874, 1500.684 775.640 L 1504.500 768.500 1504.771 632.078 C 1505.070 481.204, 1505.440 490.494, 1498.681 479.172 C 1495.032 473.061, 1489.165 467.886, 1482.278 464.706 C 1478.400 462.915, 1475.712 462.503, 1468 462.518 C 1456.271 462.540, 1450.135 465.026, 1441.855 473.110 C 1436.148 478.682, 1432.397 486.169, 1431.263 494.250 C 1430.973 496.313, 1430.530 498, 1430.277 498 C 1430.025 498, 1428.087 496.518, 1425.971 494.707 C 1418.944 488.693, 1396.315 476.013, 1385.268 471.900 C 1364.901 464.317, 1357.592 462.864, 1338 462.505 C 1328.375 462.328, 1318.925 462.363, 1317 462.583 M 1703 462.566 C 1701.625 462.798, 1697.384 463.496, 1693.575 464.116 C 1675.958 466.986, 1653.007 477.362, 1634.855 490.665 C 1626.762 496.595, 1612.154 511.444, 1605.506 520.498 C 1594.074 536.066, 1581.416 562.866, 1576.593 581.713 C 1571.703 600.822, 1569.847 635.184, 1572.419 659 C 1574.673 679.874, 1576.009 685.082, 1585.167 708.684 C 1587.849 715.595, 1599.380 736.248, 1604.046 742.500 C 1624.357 769.707, 1650.529 788.107, 1680.867 796.506 C 1698.531 801.397, 1707.356 802.846, 1719.465 802.845 C 1732.959 802.844, 1744.902 800.712, 1760.500 795.522 C 1778.297 789.601, 1799.061 777.699, 1810.930 766.617 L 1816.359 761.547 1817.500 766.523 C 1819.414 774.877, 1822.583 780.646, 1828.677 786.875 C 1835.730 794.084, 1839.629 795.457, 1853 795.446 C 1865.734 795.435, 1871.510 793.423, 1878.469 786.574 C 1884.217 780.917, 1886.476 777.203, 1888.856 769.500 C 1890.176 765.228, 1890.446 753.942, 1890.711 692 C 1890.881 652.125, 1890.643 590.475, 1890.182 555 C 1889.205 479.895, 1889.676 483.532, 1879.643 473.624 C 1876.305 470.328, 1871.235 466.598, 1868.096 465.129 C 1863.217 462.846, 1861.219 462.513, 1852.500 462.529 C 1843.660 462.546, 1841.916 462.853, 1837.466 465.181 C 1827.359 470.469, 1820.967 479.048, 1817.857 491.500 C 1816.151 498.331, 1815.487 498.837, 1812.257 495.770 C 1809.312 492.975, 1789.792 480.465, 1782.846 476.922 C 1776.958 473.918, 1758.001 467.261, 1748.500 464.861 C 1742.396 463.319, 1736.351 462.758, 1723 462.492 C 1713.375 462.300, 1704.375 462.333, 1703 462.566 M 1315 465.033 C 1310.875 465.447, 1306.150 466.329, 1304.500 466.993 C 1302.850 467.657, 1300.150 468.424, 1298.500 468.699 C 1296.850 468.973, 1293.728 470.053, 1291.562 471.099 C 1289.396 472.144, 1287.111 473, 1286.485 473 C 1284.454 473, 1273.153 477.926, 1267.756 481.164 C 1253.227 489.880, 1247.623 494.196, 1237.584 504.402 C 1219.404 522.884, 1209.443 538.001, 1201.343 559.400 C 1191.544 585.287, 1189.528 597.405, 1189.512 630.500 C 1189.500 655.292, 1190.352 665.709, 1193.723 682 C 1196.045 693.223, 1205.327 718, 1207.209 718 C 1207.709 718, 1207.859 718.419, 1207.543 718.931 C 1207.226 719.443, 1207.425 720.144, 1207.984 720.490 C 1208.543 720.835, 1209 721.742, 1209 722.505 C 1209 724.854, 1216.135 736.214, 1219.918 739.890 C 1221.888 741.804, 1222.375 742.502, 1221 741.442 L 1218.500 739.514 1220.966 742.507 C 1222.322 744.153, 1225.247 747.215, 1227.466 749.311 C 1229.685 751.408, 1236.044 757.595, 1241.598 763.061 C 1247.153 768.528, 1252.060 773, 1252.504 773 C 1252.948 773, 1254.704 774.061, 1256.406 775.358 C 1258.108 776.655, 1261.750 778.917, 1264.500 780.385 C 1267.250 781.852, 1270.850 783.928, 1272.500 784.996 C 1276.491 787.581, 1280.860 790.039, 1281.479 790.048 C 1282.173 790.057, 1285.061 790.987, 1287.797 792.081 C 1289.060 792.587, 1291.092 793, 1292.311 793 C 1293.531 793, 1296.997 793.907, 1300.014 795.016 C 1308.566 798.159, 1309.095 798.216, 1334.196 798.722 C 1360.091 799.244, 1358.440 799.474, 1380 792.325 C 1386.253 790.251, 1402.711 781.624, 1410.500 776.336 C 1411.600 775.590, 1414.082 773.919, 1416.016 772.625 C 1417.949 771.330, 1421.974 767.735, 1424.959 764.635 C 1427.944 761.536, 1430.714 759, 1431.114 759 C 1431.514 759, 1432.130 760.463, 1432.483 762.250 C 1432.836 764.038, 1433.526 766.625, 1434.016 768 C 1434.506 769.375, 1435.395 772.413, 1435.992 774.750 C 1436.647 777.316, 1437.656 779, 1438.539 779 C 1439.342 779, 1440 779.393, 1440 779.874 C 1440 781.276, 1447.424 789, 1448.772 789 C 1449.447 789, 1450 789.401, 1450 789.891 C 1450 790.812, 1451.388 791.128, 1463.928 793.067 C 1470.254 794.045, 1472.479 793.958, 1478.928 792.481 C 1485.447 790.989, 1487.152 790.118, 1491.187 786.224 C 1493.764 783.736, 1497.364 778.730, 1499.187 775.100 L 1502.500 768.500 1502.500 630 L 1502.500 491.500 1499.668 484.810 C 1496.391 477.071, 1489.666 470.099, 1482.217 466.717 C 1478.364 464.968, 1475.669 464.587, 1467.500 464.634 C 1455.416 464.705, 1451.402 466.385, 1442.918 474.922 C 1438.417 479.451, 1436.892 481.873, 1435.158 487.239 C 1433.971 490.912, 1432.993 494.949, 1432.985 496.209 C 1432.950 501.327, 1431.405 501.628, 1426.822 497.409 C 1420.758 491.829, 1396.069 477.842, 1386.500 474.566 C 1382.100 473.060, 1377.825 471.485, 1377 471.067 C 1376.175 470.648, 1373.025 469.736, 1370 469.040 C 1366.975 468.344, 1363.384 467.338, 1362.019 466.804 C 1356.279 464.557, 1329.709 463.556, 1315 465.033 M 1702 464.613 C 1691.646 465.920, 1672 471.566, 1672 473.235 C 1672 473.721, 1671.598 473.869, 1671.106 473.566 C 1669.636 472.657, 1653.905 479.655, 1650.343 482.803 C 1649.286 483.736, 1647.904 484.603, 1647.272 484.730 C 1641.167 485.949, 1613.918 511.167, 1605.919 523 C 1600.196 531.466, 1590.324 549.149, 1587.776 555.500 C 1582.519 568.600, 1578.135 584.463, 1576.430 596.556 C 1572.807 622.254, 1574.635 669.226, 1579.951 687.051 C 1583.343 698.427, 1584.317 701, 1585.227 701 C 1585.717 701, 1585.875 701.393, 1585.578 701.874 C 1584.669 703.345, 1591.392 718.612, 1594 721 C 1595.276 722.168, 1597.988 727, 1597.368 727 C 1596.995 727, 1597.366 727.788, 1598.193 728.750 C 1599.646 730.442, 1601.236 733.669, 1601.414 735.286 C 1601.461 735.719, 1602.175 736.500, 1603 737.021 C 1603.825 737.543, 1604.094 737.976, 1603.597 737.985 C 1603.100 737.993, 1603.550 738.797, 1604.597 739.772 C 1608.012 742.952, 1611.536 747.342, 1610 746.504 C 1607.066 744.903, 1631.571 768.477, 1635.500 771.036 C 1637.700 772.468, 1640.175 774.303, 1641 775.112 C 1641.825 775.922, 1643.963 777.183, 1645.750 777.914 C 1647.537 778.645, 1649 779.608, 1649 780.054 C 1649 780.500, 1650.013 781.182, 1651.250 781.568 C 1652.487 781.955, 1656.866 784.235, 1660.979 786.636 C 1665.093 789.036, 1669.454 791, 1670.670 791 C 1671.887 791, 1673.160 791.450, 1673.500 792 C 1673.840 792.550, 1675.104 793.007, 1676.309 793.015 C 1677.514 793.023, 1680.476 793.717, 1682.892 794.559 C 1692.556 797.924, 1702.290 799, 1723.082 799 C 1741.125 799, 1744.516 798.741, 1750.582 796.901 C 1764.975 792.533, 1772.644 789.745, 1777 787.299 C 1779.475 785.909, 1783.525 783.634, 1786 782.244 C 1794.253 777.609, 1806.244 768.709, 1811.686 763.179 C 1816.796 757.988, 1817.141 757.807, 1818.502 759.605 C 1819.792 761.309, 1820.543 766.272, 1820.052 769.850 C 1819.950 770.593, 1820.258 770.958, 1820.737 770.662 C 1821.216 770.366, 1822.109 771.449, 1822.720 773.069 C 1823.413 774.906, 1823.452 775.779, 1822.823 775.390 C 1820.274 773.815, 1825.022 780.061, 1829.550 784.239 C 1833.489 787.874, 1842.803 793.334, 1844.263 792.864 C 1844.393 792.822, 1847.542 793.113, 1851.259 793.511 C 1855.370 793.951, 1859.092 793.827, 1860.759 793.193 C 1862.267 792.620, 1865.103 791.888, 1867.062 791.566 C 1872.025 790.750, 1881.183 782.386, 1884.406 775.724 L 1886.935 770.500 1887.052 630.500 C 1887.177 480.910, 1887.401 488.477, 1882.569 479.134 C 1880.808 475.728, 1871.963 468.760, 1866.189 466.231 C 1863.590 465.092, 1859.547 464.619, 1852.500 464.629 C 1844.084 464.642, 1841.787 465.006, 1838 466.928 C 1827.116 472.453, 1819.696 484.193, 1818.838 497.250 C 1818.515 502.155, 1817.071 502.052, 1810.659 496.666 C 1806.222 492.938, 1802.851 490.703, 1790.503 483.299 C 1785.615 480.368, 1776.165 476, 1774.712 476 C 1773.835 476, 1772.878 475.612, 1772.585 475.137 C 1772.291 474.663, 1769.902 473.693, 1767.276 472.982 C 1764.649 472.271, 1762.044 471.343, 1761.487 470.919 C 1760.929 470.495, 1758.229 469.613, 1755.487 468.959 C 1752.744 468.305, 1748.586 467.152, 1746.247 466.396 C 1741.982 465.018, 1709.246 463.699, 1702 464.613 M 407.471 479.246 C 406.712 481.271, 406.198 577.010, 406.783 607.250 L 407.320 635 472.078 635 L 536.835 635 548.402 646.816 C 554.763 653.314, 561.611 660.739, 563.618 663.316 C 565.625 665.892, 567.595 668, 567.994 668 C 568.394 668, 576.251 660.575, 585.455 651.500 L 602.189 635 617.075 635 C 631.685 635, 631.972 634.958, 632.506 632.750 C 632.806 631.513, 632.927 596.300, 632.775 554.500 L 632.500 478.500 520.220 478.246 C 430.921 478.043, 407.844 478.248, 407.471 479.246 M 409 553.066 C 409 619.388, 409.151 626.294, 410.636 627.779 C 412.105 629.248, 417.073 629.411, 459.386 629.382 C 485.299 629.364, 512.905 629.520, 520.734 629.727 L 534.968 630.105 545.475 640.163 C 551.254 645.694, 555.734 650.621, 555.432 651.110 C 555.129 651.600, 555.584 652, 556.441 652 C 557.298 652, 558 652.525, 558 653.167 C 558 653.808, 558.288 654.045, 558.641 653.692 C 559.295 653.038, 564.955 658.889, 564.984 660.250 C 564.993 660.663, 565.788 661.007, 566.750 661.015 C 568.219 661.028, 568.263 661.180, 567.028 661.962 C 565.775 662.754, 565.822 662.994, 567.345 663.579 C 568.329 663.957, 569.644 663.756, 570.267 663.133 C 571.111 662.289, 571.094 662, 570.200 662 C 567.621 662, 569.178 660.055, 572.250 659.438 C 574.430 659.001, 576.653 657.358, 579 654.450 C 580.925 652.065, 583.321 649.822, 584.325 649.465 C 585.329 649.109, 585.894 648.561, 585.581 648.248 C 585.268 647.935, 586.022 647.152, 587.256 646.508 C 588.490 645.863, 589.376 644.777, 589.225 644.094 C 589.074 643.410, 589.325 643.083, 589.784 643.366 C 590.242 643.650, 593.216 641.208, 596.393 637.941 L 602.170 632 611.835 631.985 C 618.820 631.974, 621.084 631.681, 620 630.930 C 618.890 630.161, 619.736 629.972, 623.250 630.203 C 625.862 630.374, 628 630.147, 628 629.698 C 628 629.249, 628.399 629.128, 628.886 629.430 C 629.374 629.731, 630.043 628.970, 630.373 627.739 C 630.703 626.507, 630.979 592.845, 630.986 552.932 L 631 480.365 520 480.177 L 409 479.988 409 553.066 M 479.966 515.820 C 474.972 518.034, 471 523.849, 471 528.948 C 471 536.264, 478.908 544, 486.387 544 C 494.176 544, 501.259 538.468, 502.596 531.340 C 503.485 526.599, 500.198 519.701, 495.758 516.994 C 492.475 514.992, 483.362 514.315, 479.966 515.820 M 543.241 516.995 C 536.946 520.833, 534.242 528.968, 537.271 534.954 C 537.955 536.304, 540.458 538.892, 542.834 540.704 C 550.528 546.573, 559.935 544.672, 565.726 536.078 C 568.329 532.215, 568.672 527.270, 566.532 524.441 C 564.833 522.196, 564.545 520.601, 566 521.500 C 566.550 521.840, 567 521.905, 567 521.646 C 567 521.386, 565.111 519.784, 562.803 518.087 C 559.202 515.438, 557.746 515.001, 552.553 515.004 C 548.278 515.006, 545.543 515.591, 543.241 516.995 M 482.542 516.687 C 477.158 518.172, 472.996 523.829, 473.004 529.651 C 473.016 539.178, 485.855 545.343, 494.526 539.984 C 497.718 538.011, 501 532.757, 501 529.619 C 501 526.237, 497.807 520.317, 495.129 518.736 C 492.019 516.898, 485.577 515.850, 482.542 516.687 M 545.316 517.896 C 538.276 521.172, 535.935 529.100, 540.026 535.810 C 545.188 544.277, 559.970 543.760, 564.524 534.953 C 566.415 531.296, 566.384 529.001, 564.376 523.982 C 561.650 517.168, 552.892 514.372, 545.316 517.896 M 1334 527.966 C 1327.248 529.261, 1311.481 534.666, 1305.631 537.691 C 1296.434 542.447, 1281.219 556.334, 1274.778 565.850 C 1269.372 573.838, 1261.526 592.468, 1257.867 606 C 1255.848 613.472, 1255.565 616.859, 1255.535 634 C 1255.511 647.619, 1255.909 654.857, 1256.855 658 C 1265.732 687.472, 1270.172 696.222, 1282.479 708.500 C 1287.441 713.450, 1294.829 719.914, 1298.898 722.865 C 1316.333 735.509, 1344.243 739.898, 1367.500 733.654 C 1382.232 729.698, 1392.106 724.242, 1404.682 713.108 C 1406.613 711.399, 1408.354 710, 1408.551 710 C 1409.349 710, 1413.523 705.163, 1413.833 703.879 C 1414.016 703.120, 1415.889 699.975, 1417.995 696.890 C 1428.743 681.143, 1435.503 659.502, 1436.704 637 C 1437.238 626.980, 1435.898 611.503, 1434.079 606.701 C 1433.621 605.490, 1431.734 599.550, 1429.888 593.500 C 1428.041 587.450, 1426.232 582.275, 1425.868 582 C 1425.505 581.725, 1424.693 579.587, 1424.065 577.250 C 1423.437 574.913, 1422.559 573, 1422.113 573 C 1421.668 573, 1420.465 571.140, 1419.440 568.867 C 1417.035 563.533, 1402.123 548.344, 1393.013 541.948 C 1379.052 532.147, 1349.145 525.061, 1334 527.966 M 1719 527.950 C 1713.397 528.800, 1696.972 534.462, 1691.122 537.560 C 1682.319 542.222, 1669.428 553.149, 1664.058 560.500 C 1653.353 575.154, 1648.233 586.685, 1642.333 609.422 C 1640.075 618.121, 1639.725 621.484, 1639.773 634 C 1639.831 648.951, 1639.947 649.631, 1646.526 673.457 C 1650.630 688.322, 1666.010 710.221, 1678 718.272 C 1679.925 719.564, 1683.750 722.231, 1686.500 724.197 C 1702.495 735.635, 1729.944 739.607, 1752 733.674 C 1764.610 730.283, 1768.011 728.790, 1777.609 722.432 C 1788.162 715.442, 1795.237 708.382, 1802.143 697.952 C 1809.009 687.582, 1810.241 685.190, 1814.097 674.754 C 1823.692 648.778, 1824.293 622.198, 1815.862 596.706 C 1813.674 590.089, 1811.216 583.385, 1810.401 581.808 C 1809.585 580.231, 1809.188 578.504, 1809.518 577.971 C 1809.848 577.437, 1809.641 577, 1809.059 577 C 1808.477 577, 1808 576.100, 1808 575 C 1808 573.900, 1807.563 573, 1807.029 573 C 1806.495 573, 1805.161 571.087, 1804.066 568.750 C 1802.970 566.413, 1802.055 564.950, 1802.033 565.500 C 1801.994 566.452, 1797.647 560.101, 1797.548 558.948 C 1797.455 557.871, 1788.443 549.726, 1784.702 547.338 C 1782.613 546.005, 1780.645 544.238, 1780.328 543.412 C 1779.577 541.454, 1767.958 536.011, 1756.130 532.076 C 1742.147 527.423, 1730.792 526.161, 1719 527.950 M 1329 531.436 C 1321.623 533.013, 1307.804 538.136, 1303.870 540.751 C 1285.455 552.998, 1273.990 566.471, 1267.496 583.500 C 1253.890 619.175, 1252.967 641.482, 1263.802 672.753 C 1271.220 694.164, 1280.500 707.330, 1296.187 718.701 C 1307.273 726.737, 1310.635 728.323, 1323 731.351 C 1337.918 735.004, 1347.519 735.603, 1358.374 733.560 C 1378.156 729.835, 1389.038 724.561, 1403.390 711.740 C 1417.569 699.074, 1429.086 676.664, 1432.037 656 C 1433.802 643.639, 1433.310 616.949, 1431.123 606.500 C 1426.307 583.483, 1415.437 563.577, 1400.839 551.043 C 1390.046 541.776, 1386.246 539.581, 1372.702 534.794 C 1362.298 531.117, 1360.573 530.807, 1348.500 530.441 C 1339.778 530.176, 1333.361 530.504, 1329 531.436 M 1713.889 531.505 C 1710.253 532.230, 1703.053 534.570, 1697.889 536.706 C 1679.490 544.316, 1664.600 558.831, 1654.337 579.162 C 1651.061 585.651, 1645.313 603.756, 1643.509 613.269 C 1641.778 622.389, 1641.539 641.464, 1643.035 651 C 1644.928 663.069, 1650.848 681.219, 1655.102 688 C 1667.709 708.094, 1669.173 709.823, 1680.535 718.026 C 1691.558 725.983, 1697.187 728.667, 1709.294 731.739 C 1732.946 737.740, 1757.750 733.703, 1777.236 720.680 C 1787.412 713.880, 1792.299 709.212, 1798.440 700.428 C 1814.614 677.290, 1821.061 653.259, 1818.952 623.963 C 1817.136 598.730, 1805.510 569.763, 1791.608 555.836 C 1775.178 539.376, 1752.702 529.889, 1730.622 530.094 C 1725.055 530.146, 1717.525 530.781, 1713.889 531.505 M 435.250 546.015 C 431.718 549.228, 430.977 553.333, 433.250 557.097 C 435.862 561.422, 442.746 568.354, 449.151 573.107 C 452.809 575.822, 456.051 578.690, 456.354 579.481 C 456.658 580.272, 459.290 582.121, 462.203 583.590 C 465.116 585.060, 467.725 586.545, 468 586.891 C 469.485 588.756, 490.820 595.687, 502.500 598.097 C 511.630 599.982, 529.193 599.783, 537.861 597.697 C 548.822 595.059, 565.091 589.488, 571.966 586.017 C 581.909 580.998, 599.631 565.713, 604.560 557.905 C 607.180 553.754, 607.183 553.732, 605.409 549.799 C 601.241 540.556, 595.986 540.758, 584.850 550.591 C 578.197 556.465, 562.937 566.122, 557.176 568.103 C 539.672 574.122, 534.499 575.245, 521.948 575.748 C 510.692 576.199, 508.301 575.977, 498.807 573.600 C 484.810 570.095, 476.830 566.753, 470.067 561.563 C 467.005 559.214, 463.150 556.593, 461.500 555.741 C 459.850 554.888, 457.375 552.959, 456 551.454 C 452.094 547.179, 444.923 542.997, 441.554 543.029 C 439.599 543.048, 437.331 544.123, 435.250 546.015 M 436.589 548.077 C 435.165 549.769, 434 552.158, 434 553.386 C 434 556.222, 441.681 565.295, 448.488 570.500 C 451.365 572.700, 455.694 576.149, 458.109 578.164 C 464.669 583.639, 475.029 588.485, 489 592.613 C 500.280 595.945, 502.929 596.350, 516.135 596.759 C 527.467 597.110, 532.434 596.837, 538.135 595.549 C 557.813 591.106, 572.494 585.085, 581.044 577.950 C 583.543 575.865, 587.944 572.388, 590.824 570.225 C 597.344 565.326, 602.865 558.959, 603.987 555.045 C 605.178 550.893, 601.668 545.622, 597.432 545.203 C 594.366 544.899, 593.309 545.545, 582.209 554.500 C 579.482 556.700, 575.957 559.298, 574.375 560.273 C 572.794 561.248, 569.132 563.558, 566.237 565.407 C 560.996 568.756, 547.363 573.578, 535 576.457 C 513.977 581.352, 486.994 575.467, 466.377 561.489 C 460.945 557.806, 454.925 553.331, 453 551.545 C 444.838 543.974, 440.766 543.113, 436.589 548.077" stroke="none" fill="#4d7298" fill-rule="evenodd"/></svg>